<svg xmlns="http://www.w3.org/2000/svg" width="24" height="25" viewBox="0 0 24 25" fill="none">
  <g clip-path="url(#clip0_440_2932)">
    <path d="M12 2.40747C17.523 2.40747 22 6.88447 22 12.4075C22 17.9305 17.523 22.4075 12 22.4075C6.477 22.4075 2 17.9305 2 12.4075C2 6.88447 6.477 2.40747 12 2.40747ZM12 4.40747C9.87827 4.40747 7.84344 5.25033 6.34315 6.75062C4.84285 8.25091 4 10.2857 4 12.4075C4 14.5292 4.84285 16.564 6.34315 18.0643C7.84344 19.5646 9.87827 20.4075 12 20.4075C14.1217 20.4075 16.1566 19.5646 17.6569 18.0643C19.1571 16.564 20 14.5292 20 12.4075C20 10.2857 19.1571 8.25091 17.6569 6.75062C16.1566 5.25033 14.1217 4.40747 12 4.40747ZM12 15.4075C12.2652 15.4075 12.5196 15.5128 12.7071 15.7004C12.8946 15.8879 13 16.1423 13 16.4075C13 16.6727 12.8946 16.927 12.7071 17.1146C12.5196 17.3021 12.2652 17.4075 12 17.4075C11.7348 17.4075 11.4804 17.3021 11.2929 17.1146C11.1054 16.927 11 16.6727 11 16.4075C11 16.1423 11.1054 15.8879 11.2929 15.7004C11.4804 15.5128 11.7348 15.4075 12 15.4075ZM12 6.40747C12.2652 6.40747 12.5196 6.51283 12.7071 6.70036C12.8946 6.8879 13 7.14225 13 7.40747V13.4075C13 13.6727 12.8946 13.927 12.7071 14.1146C12.5196 14.3021 12.2652 14.4075 12 14.4075C11.7348 14.4075 11.4804 14.3021 11.2929 14.1146C11.1054 13.927 11 13.6727 11 13.4075V7.40747C11 7.14225 11.1054 6.8879 11.2929 6.70036C11.4804 6.51283 11.7348 6.40747 12 6.40747Z" fill="black"/>
  </g>
  <defs>
    <clipPath id="clip0_440_2932">
      <rect width="24" height="24" fill="white" transform="translate(0 0.407471)"/>
    </clipPath>
  </defs>
</svg>