<svg xmlns="http://www.w3.org/2000/svg" width="52" height="52" viewBox="0 0 52 52" fill="none">
  <circle cx="26" cy="26" r="26" fill="#EFEDFF"/>
  <path d="M25.7918 24.9603C28.7797 24.9603 31.1998 22.5402 31.1998 19.5523C31.1998 16.5644 28.7797 14.1443 25.7918 14.1443C22.8039 14.1443 20.3838 16.5644 20.3838 19.5523C20.3838 22.5402 22.8039 24.9603 25.7918 24.9603Z" fill="#DADADA"/>
  <path d="M25.7916 27.8719C22.1817 27.8719 14.9756 29.6372 14.9756 33.1413V34.4586C14.9756 35.1831 15.584 35.7759 16.3276 35.7759H35.2556C35.9992 35.7759 36.6076 35.1831 36.6076 34.4586V33.1413C36.6076 29.6372 29.4014 27.8719 25.7916 27.8719Z" fill="#DADADA"/>
</svg>