<svg width="33" height="32" viewBox="0 0 33 32" fill="none" xmlns="http://www.w3.org/2000/svg">
<g id="clarity:coin-bag-line" clip-path="url(#clip0_440_1451)">
<path id="Vector" d="M19.7 25.7778C19.7 25.542 19.6063 25.3159 19.4396 25.1492C19.2729 24.9825 19.0468 24.8889 18.8111 24.8889H13.4778C13.242 24.8889 13.0159 24.9825 12.8492 25.1492C12.6825 25.3159 12.5889 25.542 12.5889 25.7778C12.5889 26.0135 12.6825 26.2396 12.8492 26.4063C13.0159 26.573 13.242 26.6667 13.4778 26.6667H18.8111C19.0468 26.6667 19.2729 26.573 19.4396 26.4063C19.6063 26.2396 19.7 26.0135 19.7 25.7778Z" fill="#D6D6D6"/>
<path id="Vector_2" d="M20.5356 21.3333H15.2022C14.9665 21.3333 14.7404 21.427 14.5737 21.5937C14.407 21.7604 14.3134 21.9865 14.3134 22.2222C14.3134 22.458 14.407 22.6841 14.5737 22.8508C14.7404 23.0175 14.9665 23.1111 15.2022 23.1111H20.5356C20.7713 23.1111 20.9974 23.0175 21.1641 22.8508C21.3308 22.6841 21.4245 22.458 21.4245 22.2222C21.4245 21.9865 21.3308 21.7604 21.1641 21.5937C20.9974 21.427 20.7713 21.3333 20.5356 21.3333Z" fill="#D6D6D6"/>
<path id="Vector_3" d="M20.0556 28.4445H14.7223C14.4865 28.4445 14.2604 28.5381 14.0937 28.7048C13.927 28.8715 13.8334 29.0976 13.8334 29.3333C13.8334 29.5691 13.927 29.7952 14.0937 29.9619C14.2604 30.1286 14.4865 30.2222 14.7223 30.2222H20.0556C20.2913 30.2222 20.5174 30.1286 20.6841 29.9619C20.8508 29.7952 20.9445 29.5691 20.9445 29.3333C20.9445 29.0976 20.8508 28.8715 20.6841 28.7048C20.5174 28.5381 20.2913 28.4445 20.0556 28.4445Z" fill="#D6D6D6"/>
<path id="Vector_4" d="M29.5667 28.4445H23.3445C23.1087 28.4445 22.8826 28.5381 22.7159 28.7048C22.5492 28.8715 22.4556 29.0976 22.4556 29.3333C22.4556 29.5691 22.5492 29.7952 22.7159 29.9619C22.8826 30.1286 23.1087 30.2222 23.3445 30.2222H29.5667C29.8024 30.2222 30.0285 30.1286 30.1952 29.9619C30.3619 29.7952 30.4556 29.5691 30.4556 29.3333C30.4556 29.0976 30.3619 28.8715 30.1952 28.7048C30.0285 28.5381 29.8024 28.4445 29.5667 28.4445Z" fill="#D6D6D6"/>
<path id="Vector_5" d="M30.4556 24.8889H24.2334C23.9976 24.8889 23.7715 24.9825 23.6048 25.1492C23.4381 25.3159 23.3445 25.542 23.3445 25.7778C23.3445 26.0135 23.4381 26.2396 23.6048 26.4063C23.7715 26.573 23.9976 26.6667 24.2334 26.6667H30.4556C30.6913 26.6667 30.9174 26.573 31.0841 26.4063C31.2508 26.2396 31.3445 26.0135 31.3445 25.7778C31.3445 25.542 31.2508 25.3159 31.0841 25.1492C30.9174 24.9825 30.6913 24.8889 30.4556 24.8889Z" fill="#D6D6D6"/>
<path id="Vector_6" d="M30.4911 23.1111C30.2306 19.9813 29.38 16.9291 27.9844 14.1156C26.6475 11.5731 24.7212 9.38772 22.3666 7.74222L24.5 3.04C24.5687 2.89946 24.5992 2.74327 24.5883 2.58719C24.5773 2.43111 24.5254 2.28069 24.4377 2.15111C24.3568 2.03743 24.2503 1.9444 24.1267 1.87955C24.0032 1.81469 23.8661 1.77982 23.7266 1.77777H9.21107C9.06164 1.7774 8.91453 1.81471 8.78333 1.88625C8.65214 1.95778 8.54109 2.06124 8.46047 2.18705C8.37984 2.31287 8.33223 2.45697 8.32205 2.60606C8.31186 2.75514 8.33942 2.90438 8.40218 3.04L10.58 7.75999C8.24261 9.40704 6.32946 11.5852 4.99773 14.1156C3.08662 17.6711 2.49107 22.0178 2.33107 25.0311C2.30487 25.4722 2.37032 25.914 2.52331 26.3286C2.67629 26.7432 2.91349 27.1216 3.21996 27.44C3.54205 27.7528 3.92344 27.9981 4.3417 28.1615C4.75996 28.3248 5.20665 28.4029 5.65551 28.3911H11.1666V26.6667H5.5844C5.38323 26.666 5.18427 26.6248 4.99944 26.5453C4.81462 26.4659 4.64775 26.35 4.50885 26.2044C4.36974 26.0601 4.26231 25.8883 4.19343 25.7C4.12455 25.5117 4.09574 25.3112 4.10885 25.1111C4.23329 22.7911 4.72218 18.3733 6.56218 14.9333C7.85927 12.4685 9.77732 10.385 12.1266 8.88888H13.0155C12.4132 9.72218 11.8582 10.5887 11.3533 11.4844C10.839 12.4375 10.4021 13.4303 10.0466 14.4533L11.2644 15.2711C11.6242 14.2098 12.067 13.1784 12.5888 12.1867C13.2296 11.0335 13.9577 9.931 14.7666 8.88888H15.6555C16.2518 10.3141 16.6727 11.8065 16.9088 13.3333C17.1019 14.4668 17.1971 15.6147 17.1933 16.7644L18.5977 15.7778C18.5586 14.8838 18.4636 13.9932 18.3133 13.1111C18.0748 11.6695 17.6937 10.2551 17.1755 8.88888H17.8688L18.6777 7.11111H12.2422L10.5977 3.55555H22.34L20.1177 8.41777C20.4987 8.62181 20.8641 8.85354 21.2111 9.11111C23.389 10.6137 25.1752 12.6163 26.42 14.9511C27.6668 17.5113 28.4407 20.2757 28.7044 23.1111H30.4911Z" fill="#D6D6D6"/>
</g>
<defs>
<clipPath id="clip0_440_1451">
<rect width="32" height="32" fill="white" transform="translate(0.5)"/>
</clipPath>
</defs>
</svg>
