<svg width="124" height="136" viewBox="0 0 124 136" fill="none" xmlns="http://www.w3.org/2000/svg">
<g id="Group">
<path id="Vector" d="M91.7187 5.5H32.2812C25.0375 5.5 21.4188 5.5 18.4938 6.51875C15.7361 7.49659 13.241 9.0969 11.2021 11.1954C9.16323 13.2939 7.63548 15.8341 6.7375 18.6187C5.75 21.6312 5.75 25.3562 5.75 32.8125V120.338C5.75 125.7 11.9062 128.55 15.8 124.988C16.8924 123.978 18.3251 123.418 19.8125 123.418C21.2999 123.418 22.7326 123.978 23.825 124.988L26.8438 127.75C28.7575 129.52 31.2683 130.503 33.875 130.503C36.4817 130.503 38.9925 129.52 40.9062 127.75C42.82 125.98 45.3308 124.997 47.9375 124.997C50.5442 124.997 53.055 125.98 54.9688 127.75C56.8825 129.52 59.3933 130.503 62 130.503C64.6067 130.503 67.1175 129.52 69.0312 127.75C70.945 125.98 73.4558 124.997 76.0625 124.997C78.6692 124.997 81.18 125.98 83.0938 127.75C85.0075 129.52 87.5183 130.503 90.125 130.503C92.7317 130.503 95.2425 129.52 97.1562 127.75L100.175 124.988C101.267 123.978 102.7 123.418 104.188 123.418C105.675 123.418 107.108 123.978 108.2 124.988C112.094 128.55 118.25 125.7 118.25 120.338V32.8125C118.25 25.3562 118.25 21.625 117.262 18.625C116.366 15.839 114.839 13.2973 112.8 11.1976C110.761 9.09792 108.265 7.49681 105.506 6.51875C102.581 5.5 98.9625 5.5 91.7187 5.5Z" stroke="#CFC8FF" stroke-width="10"/>
<path id="Vector_2" d="M46.375 58L55.3062 68L77.625 43" stroke="#CFC8FF" stroke-width="10" stroke-linecap="round" stroke-linejoin="round"/>
<path id="Vector_3" d="M33.875 89.875H90.125" stroke="#CFC8FF" stroke-width="10" stroke-linecap="round"/>
</g>
</svg>
