<svg width="45" height="45" viewBox="0 0 45 45" fill="none" xmlns="http://www.w3.org/2000/svg">
<g id="Group 34">
<circle id="Ellipse 6" cx="22.5" cy="22.5" r="22.5" fill="#EFEDFF"/>
<path id="Path" d="M22.3201 21.6C24.9058 21.6 27.0001 19.5057 27.0001 16.92C27.0001 14.3343 24.9058 12.24 22.3201 12.24C19.7344 12.24 17.6401 14.3343 17.6401 16.92C17.6401 19.5057 19.7344 21.6 22.3201 21.6Z" fill="#DADADA"/>
<path id="Path_2" d="M22.32 24.12C19.1961 24.12 12.96 25.6476 12.96 28.68V29.82C12.96 30.447 13.4865 30.96 14.13 30.96H30.51C31.1535 30.96 31.68 30.447 31.68 29.82V28.68C31.68 25.6476 25.4439 24.12 22.32 24.12Z" fill="#DADADA"/>
</g>
</svg>
