<svg width="32" height="32" viewBox="0 0 32 32" fill="none" xmlns="http://www.w3.org/2000/svg">
<g id="Group 34">
<circle id="Ellipse 6" cx="16" cy="16" r="16" fill="#EFEDFF"/>
<path id="Path" d="M15.8719 15.36C17.7107 15.36 19.1999 13.8707 19.1999 12.032C19.1999 10.1933 17.7107 8.70398 15.8719 8.70398C14.0332 8.70398 12.5439 10.1933 12.5439 12.032C12.5439 13.8707 14.0332 15.36 15.8719 15.36Z" fill="#DADADA"/>
<path id="Path_2" d="M15.8718 17.152C13.6504 17.152 9.21582 18.2383 9.21582 20.3946V21.2053C9.21582 21.6512 9.59022 22.016 10.0478 22.016H21.6958C22.1534 22.016 22.5278 21.6512 22.5278 21.2053V20.3946C22.5278 18.2383 18.0933 17.152 15.8718 17.152Z" fill="#DADADA"/>
</g>
</svg>
