<svg width="20" height="20" viewBox="0 0 20 20" fill="none" xmlns="http://www.w3.org/2000/svg">
<g id="octicon:kebab-horizontal-16" clip-path="url(#clip0_716_1704)">
<path id="Vector" d="M10 11.25C10.4973 11.25 10.9742 11.0525 11.3258 10.7008C11.6775 10.3492 11.875 9.87228 11.875 9.375C11.875 8.87772 11.6775 8.40081 11.3258 8.04917C10.9742 7.69754 10.4973 7.5 10 7.5C9.50272 7.5 9.02581 7.69754 8.67417 8.04917C8.32254 8.40081 8.125 8.87772 8.125 9.375C8.125 9.87228 8.32254 10.3492 8.67417 10.7008C9.02581 11.0525 9.50272 11.25 10 11.25ZM1.875 11.25C2.37228 11.25 2.84919 11.0525 3.20083 10.7008C3.55246 10.3492 3.75 9.87228 3.75 9.375C3.75 8.87772 3.55246 8.40081 3.20083 8.04917C2.84919 7.69754 2.37228 7.5 1.875 7.5C1.37772 7.5 0.900805 7.69754 0.549175 8.04917C0.197544 8.40081 0 8.87772 0 9.375C0 9.87228 0.197544 10.3492 0.549175 10.7008C0.900805 11.0525 1.37772 11.25 1.875 11.25ZM18.125 11.25C18.6223 11.25 19.0992 11.0525 19.4508 10.7008C19.8025 10.3492 20 9.87228 20 9.375C20 8.87772 19.8025 8.40081 19.4508 8.04917C19.0992 7.69754 18.6223 7.5 18.125 7.5C17.6277 7.5 17.1508 7.69754 16.7992 8.04917C16.4475 8.40081 16.25 8.87772 16.25 9.375C16.25 9.87228 16.4475 10.3492 16.7992 10.7008C17.1508 11.0525 17.6277 11.25 18.125 11.25Z" fill="black"/>
</g>
<defs>
<clipPath id="clip0_716_1704">
<rect width="20" height="20" fill="white"/>
</clipPath>
</defs>
</svg>
