<svg width="117" height="117" viewBox="0 0 117 117" fill="none" xmlns="http://www.w3.org/2000/svg">
<path fill-rule="evenodd" clip-rule="evenodd" d="M45.9595 14.4421C51.6267 4.97242 65.3669 4.97242 71.0414 14.4421L114.865 87.5452C120.708 97.2927 113.688 109.687 102.317 109.687H14.684C3.31302 109.687 -3.70698 97.2927 2.13571 87.5452L45.9595 14.4421ZM58.5005 36.5624C59.955 36.5624 61.35 37.1402 62.3785 38.1688C63.407 39.1973 63.9848 40.5923 63.9848 42.0468V63.9843C63.9848 65.4388 63.407 66.8338 62.3785 67.8623C61.35 68.8909 59.955 69.4687 58.5005 69.4687C57.0459 69.4687 55.6509 68.8909 54.6224 67.8623C53.5939 66.8338 53.0161 65.4388 53.0161 63.9843V42.0468C53.0161 40.5923 53.5939 39.1973 54.6224 38.1688C55.6509 37.1402 57.0459 36.5624 58.5005 36.5624ZM65.813 84.0937C65.813 86.0331 65.0425 87.893 63.6712 89.2644C62.2998 90.6357 60.4399 91.4062 58.5005 91.4062C56.5611 91.4062 54.7011 90.6357 53.3297 89.2644C51.9584 87.893 51.188 86.0331 51.188 84.0937C51.188 82.1543 51.9584 80.2943 53.3297 78.923C54.7011 77.5516 56.5611 76.7812 58.5005 76.7812C60.4399 76.7812 62.2998 77.5516 63.6712 78.923C65.0425 80.2943 65.813 82.1543 65.813 84.0937Z" fill="#CFC8FF"/>
</svg>
