<svg width="150" height="150" viewBox="0 0 150 150" fill="none" xmlns="http://www.w3.org/2000/svg">
<g id="solar:bill-cross-broken">
<path id="Vector" d="M87.5 50L62.5 75M62.5 50L87.5 75M46.875 96.875H56.25M103.125 96.875H75M131.25 43.75V39.8125C131.25 32.3563 131.25 28.625 130.262 25.625C129.366 22.839 127.839 20.2973 125.8 18.1976C123.761 16.0979 121.265 14.4968 118.506 13.5188C115.581 12.5 111.962 12.5 104.719 12.5H45.2812C38.0375 12.5 34.4188 12.5 31.4938 13.5188C28.7361 14.4966 26.241 16.0969 24.2021 18.1954C22.1632 20.2939 20.6355 22.8341 19.7375 25.6188C18.75 28.6313 18.75 32.3563 18.75 39.8125V93.75M131.25 68.75V127.338C131.25 132.7 125.094 135.55 121.2 131.988C120.108 130.978 118.675 130.418 117.188 130.418C115.7 130.418 114.267 130.978 113.175 131.988L110.156 134.75C108.242 136.52 105.732 137.503 103.125 137.503C100.518 137.503 98.0075 136.52 96.0938 134.75C94.18 132.98 91.6692 131.997 89.0625 131.997C86.4558 131.997 83.945 132.98 82.0312 134.75C80.1175 136.52 77.6067 137.503 75 137.503C72.3933 137.503 69.8825 136.52 67.9688 134.75C66.055 132.98 63.5442 131.997 60.9375 131.997C58.3308 131.997 55.82 132.98 53.9062 134.75C51.9925 136.52 49.4817 137.503 46.875 137.503C44.2683 137.503 41.7575 136.52 39.8438 134.75L36.825 131.988C35.7326 130.978 34.2999 130.418 32.8125 130.418C31.3251 130.418 29.8924 130.978 28.8 131.988C24.9062 135.55 18.75 132.7 18.75 127.338V118.75" stroke="#CFC8FF" stroke-width="10" stroke-linecap="round"/>
</g>
</svg>
