<svg width="24" height="24" viewBox="0 0 24 24" fill="none" xmlns="http://www.w3.org/2000/svg">
<g clip-path="url(#clip0_358_2728)">
<path d="M3.04998 9.31001C3.00747 9.18307 2.99089 9.04888 3.00121 8.91541C3.01153 8.78193 3.04854 8.65189 3.11006 8.53298C3.17157 8.41408 3.25634 8.30874 3.35932 8.22321C3.46231 8.13768 3.58142 8.07369 3.7096 8.03505C3.83777 7.99641 3.9724 7.9839 4.1055 7.99826C4.2386 8.01262 4.36747 8.05356 4.48445 8.11866C4.60143 8.18375 4.70415 8.27167 4.78653 8.3772C4.8689 8.48273 4.92924 8.60373 4.96398 8.73301C7.04998 15.719 16.946 15.72 19.034 8.73701C19.0714 8.61108 19.1333 8.49374 19.216 8.39171C19.2988 8.28969 19.4009 8.20496 19.5164 8.14237C19.6319 8.07979 19.7586 8.04056 19.8893 8.02695C20.02 8.01333 20.152 8.02559 20.278 8.06301C20.4039 8.10044 20.5212 8.16231 20.6233 8.24508C20.7253 8.32785 20.81 8.42991 20.8726 8.54542C20.9352 8.66094 20.9744 8.78765 20.988 8.91833C21.0017 9.049 20.9894 9.18108 20.952 9.30701C20.5881 10.5582 19.971 11.7213 19.139 12.724L20.414 14C20.5961 14.1886 20.6969 14.4412 20.6947 14.7034C20.6924 14.9656 20.5872 15.2164 20.4018 15.4018C20.2164 15.5872 19.9656 15.6924 19.7034 15.6947C19.4412 15.697 19.1886 15.5962 19 15.414L17.689 14.103C16.9814 14.6365 16.1999 15.064 15.369 15.372L15.726 16.707C15.7641 16.8351 15.7761 16.9694 15.7614 17.1022C15.7467 17.235 15.7055 17.3635 15.6403 17.4801C15.5751 17.5967 15.4872 17.6991 15.3818 17.7811C15.2764 17.8632 15.1556 17.9233 15.0266 17.9579C14.8975 17.9926 14.7629 18.001 14.6305 17.9827C14.4982 17.9644 14.3709 17.9197 14.2561 17.8514C14.1413 17.7831 14.0413 17.6925 13.9621 17.5849C13.8829 17.4773 13.8261 17.3549 13.795 17.225L13.431 15.868C12.484 16.008 11.516 16.008 10.569 15.868L10.205 17.225C10.1739 17.3549 10.117 17.4773 10.0378 17.5849C9.95864 17.6925 9.85869 17.7831 9.74388 17.8514C9.62908 17.9197 9.50175 17.9644 9.36942 17.9827C9.23708 18.001 9.10242 17.9926 8.97339 17.9579C8.84436 17.9233 8.72357 17.8632 8.61816 17.7811C8.51274 17.6991 8.42485 17.5967 8.35965 17.4801C8.29445 17.3635 8.25328 17.235 8.23857 17.1022C8.22385 16.9694 8.2359 16.8351 8.27398 16.707L8.63098 15.372C7.80003 15.0637 7.01848 14.6359 6.31098 14.102L5.00098 15.414C4.81347 15.6018 4.55905 15.7074 4.29369 15.7076C4.02832 15.7078 3.77375 15.6025 3.58598 15.415C3.39821 15.2275 3.29261 14.9731 3.29242 14.7077C3.29224 14.4424 3.39747 14.1878 3.58498 14L4.85998 12.725C4.07598 11.789 3.44998 10.651 3.04798 9.31101L3.04998 9.31001Z" fill="#D6D6D6"/>
</g>
<defs>
<clipPath id="clip0_358_2728">
<rect width="24" height="24" fill="white"/>
</clipPath>
</defs>
</svg>
