<svg width="117" height="117" viewBox="0 0 117 117" fill="none" xmlns="http://www.w3.org/2000/svg">
<path d="M82.6262 68.8399L92.971 58.5C97.5325 53.9238 100.094 47.7258 100.094 41.2644C100.094 34.803 97.5325 28.6051 92.971 24.0289C88.396 19.4649 82.1976 16.9019 75.7354 16.9019C69.2732 16.9019 63.0748 19.4649 58.4998 24.0289L55.0532 27.4755L61.9465 34.3687L65.3931 30.9221C68.1403 28.1872 71.8589 26.6518 75.7354 26.6518C79.6119 26.6518 83.3305 28.1872 86.0777 30.9221C88.815 33.6681 90.3521 37.3872 90.3521 41.2644C90.3521 45.1417 88.815 48.8608 86.0777 51.6068L75.733 61.9466C74.5484 63.1234 73.1525 64.0661 71.6185 64.7254L65.3931 58.5L72.2863 51.6068L68.8397 48.1601C66.5825 45.8889 63.897 44.0882 60.9388 42.8623C57.9807 41.6364 54.8087 41.0096 51.6066 41.0182C50.461 41.0182 49.3446 41.1742 48.238 41.34L18.0715 11.1784L11.1782 18.0716L98.9282 105.822L105.821 98.9284L78.8335 71.9404C80.1838 71.0434 81.4562 70.0099 82.6262 68.8399ZM51.6066 86.0779C48.8594 88.8128 45.1407 90.3482 41.2643 90.3482C37.3878 90.3482 33.6692 88.8128 30.922 86.0779C28.1847 83.3319 26.6476 79.6128 26.6476 75.7356C26.6476 71.8583 28.1847 68.1392 30.922 65.3932L38.1175 58.2026L31.2242 51.3094L24.0287 58.5C19.4672 63.0762 16.9057 69.2741 16.9057 75.7356C16.9057 82.197 19.4672 88.3949 24.0287 92.9711C26.2901 95.2357 28.9767 97.0312 31.9341 98.2543C34.8915 99.4775 38.0615 100.104 41.2618 100.098C44.4631 100.105 47.634 99.4788 50.5924 98.2556C53.5507 97.0325 56.238 95.2365 58.4998 92.9711L61.9465 89.5245L55.0532 82.6313L51.6066 86.0779Z" fill="#CFC8FF"/>
</svg>
