<svg width="117" height="117" viewBox="0 0 117 117" fill="none" xmlns="http://www.w3.org/2000/svg">
<path d="M82.6262 68.84L92.971 58.5001C97.5325 53.9239 100.094 47.7259 100.094 41.2645C100.094 34.8031 97.5325 28.6052 92.971 24.029C88.396 19.465 82.1976 16.902 75.7354 16.902C69.2732 16.902 63.0748 19.465 58.4998 24.029L55.0532 27.4756L61.9465 34.3688L65.3931 30.9222C68.1403 28.1873 71.8589 26.6519 75.7354 26.6519C79.6119 26.6519 83.3305 28.1873 86.0777 30.9222C88.815 33.6682 90.3521 37.3873 90.3521 41.2645C90.3521 45.1418 88.815 48.8609 86.0777 51.6068L75.733 61.9467C74.5484 63.1235 73.1525 64.0662 71.6185 64.7255L65.3931 58.5001L72.2863 51.6068L68.8397 48.1602C66.5825 45.889 63.897 44.0883 60.9388 42.8624C57.9807 41.6365 54.8087 41.0097 51.6066 41.0183C50.461 41.0183 49.3446 41.1743 48.238 41.3401L18.0715 11.1785L11.1782 18.0717L98.9282 105.822L105.821 98.9285L78.8335 71.9405C80.1838 71.0435 81.4562 70.01 82.6262 68.84ZM51.6066 86.078C48.8594 88.8129 45.1407 90.3483 41.2643 90.3483C37.3878 90.3483 33.6692 88.8129 30.922 86.078C28.1847 83.332 26.6476 79.6129 26.6476 75.7356C26.6476 71.8584 28.1847 68.1393 30.922 65.3933L38.1175 58.2027L31.2242 51.3095L24.0287 58.5001C19.4672 63.0763 16.9057 69.2742 16.9057 75.7356C16.9057 82.1971 19.4672 88.395 24.0287 92.9712C26.2901 95.2358 28.9767 97.0313 31.9341 98.2544C34.8915 99.4775 38.0615 100.104 41.2618 100.098C44.4631 100.105 47.634 99.4789 50.5924 98.2557C53.5507 97.0326 56.238 95.2366 58.4998 92.9712L61.9465 89.5246L55.0532 82.6313L51.6066 86.078Z" fill="#CFC8FF"/>
</svg>
