<svg width="58" height="32" viewBox="0 0 58 32" fill="none" xmlns="http://www.w3.org/2000/svg">
<rect width="58" height="32" rx="5" fill="#EFEDFF"/>
<path d="M21.3334 10.088H22.2814V20.936H21.3334V10.088ZM19.6174 14.456H21.7054V15.296H19.6174V14.456ZM18.9694 10.316H19.9054V20.396H18.9694V10.316ZM15.2734 11.768H16.0534V13.016C16.0534 15.62 15.2014 17.708 13.5334 18.704L12.9214 17.936C14.4814 17.072 15.2734 15.224 15.2734 13.016V11.768ZM15.4534 11.768H16.2334V13.016C16.2334 15.008 17.0374 16.772 18.5614 17.552L17.9734 18.32C16.3174 17.408 15.4534 15.404 15.4534 13.016V11.768ZM13.1734 11.36H18.2134V12.188H13.1734V11.36ZM24.5245 10.532H25.5085V12.092H28.5685V10.532H29.5405V15.272H24.5245V10.532ZM25.5085 12.872V14.468H28.5685V12.872H25.5085ZM31.4965 10.088H32.4925V15.68H31.4965V10.088ZM32.0605 12.416H34.0885V13.244H32.0605V12.416ZM25.6045 16.208H32.4925V18.836H26.6125V20.468H25.6285V18.092H31.5205V17H25.6045V16.208ZM25.6285 20.024H32.8885V20.816H25.6285V20.024ZM39.5115 13.88H40.4955V15.908H39.5115V13.88ZM39.4995 10.256H40.3635V10.736C40.3635 12.692 38.2875 14.084 36.0795 14.444L35.6955 13.652C37.6395 13.388 39.4995 12.188 39.4995 10.736V10.256ZM39.6555 10.256H40.5075V10.736C40.5075 12.188 42.3795 13.388 44.3115 13.652L43.9395 14.444C41.7435 14.072 39.6555 12.692 39.6555 10.736V10.256ZM35.1075 15.476H44.9115V16.268H35.1075V15.476ZM40.0035 17.168C42.3315 17.168 43.7235 17.84 43.7235 19.04C43.7235 20.252 42.3315 20.912 40.0035 20.912C37.6755 20.912 36.2835 20.252 36.2835 19.04C36.2835 17.84 37.6755 17.168 40.0035 17.168ZM40.0035 17.936C38.2995 17.936 37.2915 18.332 37.2915 19.04C37.2915 19.748 38.2995 20.144 40.0035 20.144C41.7195 20.144 42.7155 19.748 42.7155 19.04C42.7155 18.332 41.7195 17.936 40.0035 17.936Z" fill="#6046FF"/>
</svg>
