<svg width="117" height="117" viewBox="0 0 117 117" fill="none" xmlns="http://www.w3.org/2000/svg">
<path d="M48.75 78H68.25C70.9313 78 73.125 75.8062 73.125 73.125V48.75H80.8763C85.215 48.75 87.4087 43.485 84.3375 40.4137L61.9613 18.0375C61.5102 17.5856 60.9745 17.227 60.3848 16.9824C59.795 16.7377 59.1628 16.6118 58.5244 16.6118C57.8859 16.6118 57.2537 16.7377 56.664 16.9824C56.0742 17.227 55.5385 17.5856 55.0875 18.0375L32.7113 40.4137C29.64 43.485 31.785 48.75 36.1237 48.75H43.875V73.125C43.875 75.8062 46.0688 78 48.75 78ZM29.25 87.75H87.75C90.4313 87.75 92.625 89.9437 92.625 92.625C92.625 95.3062 90.4313 97.5 87.75 97.5H29.25C26.5687 97.5 24.375 95.3062 24.375 92.625C24.375 89.9437 26.5687 87.75 29.25 87.75Z" fill="#CFC8FF"/>
</svg>
