<svg width="117" height="117" viewBox="0 0 117 117" fill="none" xmlns="http://www.w3.org/2000/svg">
<path d="M60.8063 25.3988L68.1188 32.7113C68.572 33.1682 69.1112 33.5309 69.7053 33.7784C70.2993 34.0259 70.9365 34.1533 71.5801 34.1533C72.2236 34.1533 72.8608 34.0259 73.4549 33.7784C74.049 33.5309 74.5881 33.1682 75.0413 32.7113C75.7812 31.9347 76.2442 30.9358 76.3588 29.8694C76.4734 28.803 76.2331 27.7285 75.6751 26.8125H93.5176C94.8105 26.8125 96.0505 26.2989 96.9647 25.3847C97.879 24.4704 98.3926 23.2304 98.3926 21.9375C98.3926 20.6446 97.879 19.4046 96.9647 18.4904C96.0505 17.5761 94.8105 17.0625 93.5176 17.0625H75.6751C76.2331 16.1465 76.4734 15.0721 76.3588 14.0056C76.2442 12.9392 75.7812 11.9403 75.0413 11.1638C74.5881 10.7068 74.049 10.3442 73.4549 10.0967C72.8608 9.84916 72.2236 9.72174 71.5801 9.72174C70.9365 9.72174 70.2993 9.84916 69.7053 10.0967C69.1112 10.3442 68.572 10.7068 68.1188 11.1638L60.8063 18.4763C60.3625 18.9399 60.0146 19.4866 59.7826 20.085C59.295 21.2719 59.295 22.6031 59.7826 23.79C60.0146 24.3884 60.3625 24.9351 60.8063 25.3988ZM112.628 44.46C112.396 43.8616 112.048 43.3149 111.604 42.8513L104.291 35.5388C103.838 35.0818 103.299 34.7192 102.705 34.4717C102.111 34.2242 101.474 34.0967 100.83 34.0967C100.187 34.0967 99.5493 34.2242 98.9553 34.4717C98.3612 34.7192 97.822 35.0818 97.3688 35.5388C96.629 36.3153 96.1659 37.3142 96.0514 38.3806C95.9368 39.4471 96.1771 40.5215 96.7351 41.4375H78.8926C77.5997 41.4375 76.3597 41.9511 75.4454 42.8654C74.5312 43.7796 74.0176 45.0196 74.0176 46.3125C74.0176 47.6054 74.5312 48.8454 75.4454 49.7597C76.3597 50.6739 77.5997 51.1875 78.8926 51.1875H96.7351C96.1771 52.1035 95.9368 53.178 96.0514 54.2444C96.1659 55.3108 96.629 56.3097 97.3688 57.0863C97.822 57.5432 98.3612 57.9059 98.9553 58.1534C99.5493 58.4008 100.187 58.5283 100.83 58.5283C101.474 58.5283 102.111 58.4008 102.705 58.1534C103.299 57.9059 103.838 57.5432 104.291 57.0863L111.604 49.7738C112.048 49.3101 112.396 48.7634 112.628 48.165C113.115 46.9781 113.115 45.6469 112.628 44.46ZM54.5176 48.75C50.6608 48.75 46.8907 49.8937 43.684 52.0364C40.4772 54.179 37.9778 57.2245 36.5019 60.7877C35.026 64.3508 34.6399 68.2716 35.3923 72.0543C36.1447 75.8369 38.0019 79.3115 40.729 82.0386C43.4561 84.7657 46.9307 86.6229 50.7133 87.3753C54.496 88.1277 58.4168 87.7416 61.9799 86.2657C65.5431 84.7897 68.5886 82.2904 70.7312 79.0836C72.8739 75.8769 74.0176 72.1067 74.0176 68.25C74.0176 63.0783 71.9631 58.1184 68.3062 54.4614C64.6492 50.8045 59.6893 48.75 54.5176 48.75ZM54.5176 78C52.5892 78 50.7042 77.4282 49.1008 76.3568C47.4974 75.2855 46.2477 73.7627 45.5098 71.9812C44.7718 70.1996 44.5787 68.2392 44.9549 66.3479C45.3311 64.4566 46.2597 62.7193 47.6233 61.3557C48.9869 59.9922 50.7241 59.0636 52.6155 58.6874C54.5068 58.3111 56.4672 58.5042 58.2487 59.2422C60.0303 59.9801 61.5531 61.2298 62.6244 62.8332C63.6958 64.4366 64.2676 66.3216 64.2676 68.25C64.2676 70.8359 63.2404 73.3158 61.4119 75.1443C59.5834 76.9728 57.1034 78 54.5176 78ZM98.3926 63.375C97.0997 63.375 95.8597 63.8886 94.9454 64.8029C94.0312 65.7171 93.5176 66.9571 93.5176 68.25V92.625C93.5176 93.9179 93.004 95.1579 92.0897 96.0722C91.1755 96.9864 89.9355 97.5 88.6426 97.5H20.3926C19.0996 97.5 17.8597 96.9864 16.9454 96.0722C16.0312 95.1579 15.5176 93.9179 15.5176 92.625V53.625C15.5176 52.3321 16.0312 51.0921 16.9454 50.1779C17.8597 49.2636 19.0996 48.75 20.3926 48.75H30.1426C31.2118 48.8023 32.2684 48.5013 33.1495 47.8933C34.0305 47.2854 34.687 46.4044 35.0176 45.3863L37.6501 37.4888C37.9548 36.5498 38.5374 35.7254 39.3209 35.1248C40.1043 34.5242 41.0517 34.1755 42.0376 34.125H49.6426C50.9355 34.125 52.1755 33.6114 53.0897 32.6972C54.004 31.7829 54.5176 30.5429 54.5176 29.25C54.5176 27.9571 54.004 26.7171 53.0897 25.8029C52.1755 24.8886 50.9355 24.375 49.6426 24.375H42.0376C38.9595 24.3739 35.9596 25.344 33.465 27.1471C30.9704 28.9502 29.1083 31.4945 28.1438 34.4175L26.6326 39H20.3926C16.5138 39 12.7939 40.5408 10.0511 43.2836C7.30842 46.0263 5.76758 49.7462 5.76758 53.625V92.625C5.76758 96.5038 7.30842 100.224 10.0511 102.966C12.7939 105.709 16.5138 107.25 20.3926 107.25H88.6426C92.5214 107.25 96.2413 105.709 98.984 102.966C101.727 100.224 103.268 96.5038 103.268 92.625V68.25C103.268 66.9571 102.754 65.7171 101.84 64.8029C100.925 63.8886 99.6855 63.375 98.3926 63.375Z" fill="#CFC8FF"/>
</svg>
