<svg width="150" height="150" viewBox="0 0 150 150" fill="none" xmlns="http://www.w3.org/2000/svg">
<path d="M104.719 12.5H45.2812C38.0375 12.5 34.4188 12.5 31.4938 13.5188C28.7361 14.4966 26.241 16.0969 24.2021 18.1954C22.1632 20.2939 20.6355 22.8341 19.7375 25.6187C18.75 28.6312 18.75 32.3562 18.75 39.8125V127.338C18.75 132.7 24.9062 135.55 28.8 131.988C29.8924 130.978 31.3251 130.418 32.8125 130.418C34.2999 130.418 35.7326 130.978 36.825 131.988L39.8438 134.75C41.7575 136.52 44.2683 137.503 46.875 137.503C49.4817 137.503 51.9925 136.52 53.9062 134.75C55.82 132.98 58.3308 131.997 60.9375 131.997C63.5442 131.997 66.055 132.98 67.9688 134.75C69.8825 136.52 72.3933 137.503 75 137.503C77.6067 137.503 80.1175 136.52 82.0312 134.75C83.945 132.98 86.4558 131.997 89.0625 131.997C91.6692 131.997 94.18 132.98 96.0938 134.75C98.0075 136.52 100.518 137.503 103.125 137.503C105.732 137.503 108.242 136.52 110.156 134.75L113.175 131.988C114.267 130.978 115.7 130.418 117.188 130.418C118.675 130.418 120.108 130.978 121.2 131.988C125.094 135.55 131.25 132.7 131.25 127.338V39.8125C131.25 32.3562 131.25 28.625 130.262 25.625C129.366 22.839 127.839 20.2973 125.8 18.1976C123.761 16.0979 121.265 14.4968 118.506 13.5188C115.581 12.5 111.962 12.5 104.719 12.5Z" stroke="#CFC8FF" stroke-width="10"/>
<path d="M59.375 65L68.3062 75L90.625 50" stroke="#CFC8FF" stroke-width="10" stroke-linecap="round" stroke-linejoin="round"/>
<path d="M46.875 96.875H103.125" stroke="#CFC8FF" stroke-width="10" stroke-linecap="round"/>
</svg>
