<svg width="117" height="103" viewBox="0 0 117 103" fill="none" xmlns="http://www.w3.org/2000/svg">
<path fill-rule="evenodd" clip-rule="evenodd" d="M45.959 7.44219C51.6262 -2.0275 65.3664 -2.0275 71.0409 7.44219L114.865 80.5452C120.707 90.2928 113.687 102.688 102.316 102.688H14.6835C3.31253 102.688 -3.70747 90.2928 2.13522 80.5452L45.959 7.44219ZM58.5 29.5625C59.9545 29.5625 61.3495 30.1403 62.378 31.1688C63.4065 32.1974 63.9843 33.5923 63.9843 35.0469V56.9844C63.9843 58.4389 63.4065 59.8339 62.378 60.8624C61.3495 61.8909 59.9545 62.4688 58.5 62.4688C57.0454 62.4688 55.6505 61.8909 54.6219 60.8624C53.5934 59.8339 53.0156 58.4389 53.0156 56.9844V35.0469C53.0156 33.5923 53.5934 32.1974 54.6219 31.1688C55.6505 30.1403 57.0454 29.5625 58.5 29.5625ZM65.8125 77.0938C65.8125 79.0331 65.0421 80.8931 63.6707 82.2645C62.2993 83.6358 60.4394 84.4062 58.5 84.4062C56.5606 84.4062 54.7006 83.6358 53.3293 82.2645C51.9579 80.8931 51.1875 79.0331 51.1875 77.0938C51.1875 75.1544 51.9579 73.2944 53.3293 71.923C54.7006 70.5517 56.5606 69.7812 58.5 69.7812C60.4394 69.7812 62.2993 70.5517 63.6707 71.923C65.0421 73.2944 65.8125 75.1544 65.8125 77.0938Z" fill="#CFC8FF"/>
</svg>

